REM DIRINDEX 1\2\6,1\2\7,1\2\8,1\2\9,1\3\10,1\3\11,1\4\12,1\4\13,1\4\14,1\5\15,1\5\16,1\5\17
REM DIRNAME cjc029,folder01,folder02,folder03,folder04,folder05,folder06,folder07,folder08,folder09,folder10,folder11,folder12,folder13,folder14,folder15,folder16
TITLE ""
FILE "1400_3_sec02_0133_0149.mp3" MP3
  TRACK 01 AUDIO
    TITLE "0:"
    INDEX 01 00:00:00
  TRACK 02 AUDIO
    TITLE "17:cjc029_4693"
    INDEX 01 00:00:15
  TRACK 03 AUDIO
    TITLE "0:"
    INDEX 01 00:03:70
  TRACK 04 AUDIO
    TITLE "16:cjc029_4694"
    INDEX 01 00:04:52
  TRACK 05 AUDIO
    TITLE "0:"
    INDEX 01 00:05:50
  TRACK 06 AUDIO
    TITLE "17:cjc029_4695"
    INDEX 01 00:06:35
  TRACK 07 AUDIO
    TITLE "0:"
    INDEX 01 00:08:11
  TRACK 08 AUDIO
    TITLE "16:cjc029_4696"
    INDEX 01 00:08:15
  TRACK 09 AUDIO
    TITLE "0:"
    INDEX 01 00:09:34
  TRACK 10 AUDIO
    TITLE "17:cjc029_4697"
    INDEX 01 00:10:19
  TRACK 11 AUDIO
    TITLE "0:"
    INDEX 01 00:11:19
  TRACK 12 AUDIO
    TITLE "16:cjc029_4698"
    INDEX 01 00:11:25
  TRACK 13 AUDIO
    TITLE "0:"
    INDEX 01 00:12:30
  TRACK 14 AUDIO
    TITLE "17:cjc029_4699"
    INDEX 01 00:13:14
  TRACK 15 AUDIO
    TITLE "0:"
    INDEX 01 00:14:47
  TRACK 16 AUDIO
    TITLE "16:cjc029_4700"
    INDEX 01 00:14:53
  TRACK 17 AUDIO
    TITLE "0:"
    INDEX 01 00:15:70
  TRACK 18 AUDIO
    TITLE "17:cjc029_4701"
    INDEX 01 00:16:55
  TRACK 19 AUDIO
    TITLE "0:"
    INDEX 01 00:17:70
  TRACK 20 AUDIO
    TITLE "16:cjc029_4702"
    INDEX 01 00:18:01
  TRACK 21 AUDIO
    TITLE "0:"
    INDEX 01 00:19:18
  TRACK 22 AUDIO
    TITLE "17:cjc029_4703"
    INDEX 01 00:20:04
  TRACK 23 AUDIO
    TITLE "0:"
    INDEX 01 00:21:25
  TRACK 24 AUDIO
    TITLE "16:cjc029_4704"
    INDEX 01 00:21:29
  TRACK 25 AUDIO
    TITLE "0:"
    INDEX 01 00:22:44
  TRACK 26 AUDIO
    TITLE "17:cjc029_4705"
    INDEX 01 00:23:30
  TRACK 27 AUDIO
    TITLE "0:"
    INDEX 01 00:24:55
  TRACK 28 AUDIO
    TITLE "16:cjc029_4706"
    INDEX 01 00:24:63
  TRACK 29 AUDIO
    TITLE "0:"
    INDEX 01 00:26:07
  TRACK 30 AUDIO
    TITLE "17:cjc029_4707"
    INDEX 01 00:26:66
  TRACK 31 AUDIO
    TITLE "0:"
    INDEX 01 00:28:23
  TRACK 32 AUDIO
    TITLE "16:cjc029_4708"
    INDEX 01 00:28:27
  TRACK 33 AUDIO
    TITLE "0:"
    INDEX 01 00:29:44
  TRACK 34 AUDIO
    TITLE "17:cjc029_4709"
    INDEX 01 00:30:28
  TRACK 35 AUDIO
    TITLE "0:"
    INDEX 01 00:32:17
  TRACK 36 AUDIO
    TITLE "16:cjc029_4710"
    INDEX 01 00:32:29
  TRACK 37 AUDIO
    TITLE "0:"
    INDEX 01 00:33:26
  TRACK 38 AUDIO
    TITLE "17:cjc029_4711"
    INDEX 01 00:34:10
  TRACK 39 AUDIO
    TITLE "0:"
    INDEX 01 00:35:21
  TRACK 40 AUDIO
    TITLE "16:cjc029_4712"
    INDEX 01 00:35:27
  TRACK 41 AUDIO
    TITLE "0:"
    INDEX 01 00:36:33
  TRACK 42 AUDIO
    TITLE "17:cjc029_4713"
    INDEX 01 00:37:20
  TRACK 43 AUDIO
    TITLE "0:"
    INDEX 01 00:38:18
  TRACK 44 AUDIO
    TITLE "16:cjc029_4714"
    INDEX 01 00:38:24
  TRACK 45 AUDIO
    TITLE "0:"
    INDEX 01 00:39:37
  TRACK 46 AUDIO
    TITLE "17:cjc029_4715"
    INDEX 01 00:40:21
  TRACK 47 AUDIO
    TITLE "0:"
    INDEX 01 00:41:42
  TRACK 48 AUDIO
    TITLE "16:cjc029_4716"
    INDEX 01 00:41:49
  TRACK 49 AUDIO
    TITLE "0:"
    INDEX 01 00:42:55
  TRACK 50 AUDIO
    TITLE "17:cjc029_4717"
    INDEX 01 00:43:39
  TRACK 51 AUDIO
    TITLE "0:"
    INDEX 01 00:44:48
  TRACK 52 AUDIO
    TITLE "16:cjc029_4718"
    INDEX 01 00:44:52
  TRACK 53 AUDIO
    TITLE "0:"
    INDEX 01 00:45:65
  TRACK 54 AUDIO
    TITLE "17:cjc029_4719"
    INDEX 01 00:46:49
  TRACK 55 AUDIO
    TITLE "0:"
    INDEX 01 00:47:54
  TRACK 56 AUDIO
    TITLE "16:cjc029_4720"
    INDEX 01 00:47:60
  TRACK 57 AUDIO
    TITLE "0:"
    INDEX 01 00:49:00
  TRACK 58 AUDIO
    TITLE "17:cjc029_4721"
    INDEX 01 00:49:63
  TRACK 59 AUDIO
    TITLE "0:"
    INDEX 01 00:51:03
  TRACK 60 AUDIO
    TITLE "16:cjc029_4722"
    INDEX 01 00:51:11
  TRACK 61 AUDIO
    TITLE "0:"
    INDEX 01 00:52:28
  TRACK 62 AUDIO
    TITLE "17:cjc029_4723"
    INDEX 01 00:53:13
  TRACK 63 AUDIO
    TITLE "0:"
    INDEX 01 00:56:00
  TRACK 64 AUDIO
    TITLE "16:cjc029_4724"
    INDEX 01 00:56:08
  TRACK 65 AUDIO
    TITLE "0:"
    INDEX 01 00:57:31
  TRACK 66 AUDIO
    TITLE "17:cjc029_4725"
    INDEX 01 00:58:18
  TRACK 67 AUDIO
    TITLE "0:"
    INDEX 01 00:59:30
  TRACK 68 AUDIO
    TITLE "16:cjc029_4726"
    INDEX 01 00:59:34
  TRACK 69 AUDIO
    TITLE "0:"
    INDEX 01 01:00:45
